<svg width="59" height="54" viewBox="0 0 59 54" fill="none" xmlns="http://www.w3.org/2000/svg">
<g clip-path="url(#clip0_51_68)">
<path d="M51.9043 7.80217C51.5268 11.2523 47.8 14.0396 44.0115 14.0396H29.4999C28.7045 14.0396 27.9905 13.5913 27.705 12.9127C27.4182 12.2334 27.6186 11.463 28.2086 10.974L39.1822 1.87166C41.4506 -0.0112722 44.6007 -0.476178 47.404 0.660986C50.4536 1.89824 52.245 4.68894 51.9043 7.80217ZM34.4877 10.5178H44.1322C46.137 10.5178 47.9434 9.16461 48.0866 7.33452C48.2204 5.62645 47.1461 4.20242 45.3163 3.70292C44.0413 3.35487 42.6622 3.73645 41.6764 4.55426C39.373 6.46504 34.4877 10.5178 34.4877 10.5178Z" fill="#FFCC33"/>
<path d="M29.4874 14.0395H14.9762C11.1886 14.0395 7.46154 11.253 7.08311 7.80363C6.74168 4.69061 8.53334 1.89896 11.5822 0.6616C14.3842 -0.475142 17.533 -0.0119236 19.8051 1.87112L30.7788 10.9741C31.3688 11.4631 31.5692 12.2335 31.2823 12.9127C30.9968 13.5913 30.2829 14.0395 29.4874 14.0395ZM14.7099 3.56885C14.1666 3.56885 13.6151 3.6799 13.0793 3.90645C12.0558 4.3394 11.2642 5.19496 11.0012 6.1985C10.4041 8.47726 12.2859 10.5177 14.6773 10.5177H24.4998L17.2225 4.48073C16.496 3.87903 15.6168 3.56885 14.7099 3.56885Z" fill="#FFE14D"/>
<path d="M33.3478 10.5178H25.6521C25.6521 8.57272 27.3747 6.99606 29.4999 6.99606C31.6251 6.99606 33.3478 8.57282 33.3478 10.5178Z" fill="#FF9F19"/>
<path d="M33.3478 10.5178C33.3478 8.57272 31.6252 6.99606 29.5 6.99606V10.5178H33.3478Z" fill="#F28618"/>
<path d="M55.1522 17.5612V50.4307C55.1522 52.3795 53.4334 53.9524 51.3044 53.9524H7.6957C5.56674 53.9524 3.84791 52.3794 3.84791 50.4307V17.5612H55.1522Z" fill="#E6563A"/>
<path d="M29.5 53.9525H51.3043C53.4333 53.9525 55.1521 52.3795 55.1521 50.4308V17.5612H29.5V53.9525Z" fill="#D9472B"/>
<path d="M55.1522 10.5178H3.84779C1.71884 10.5178 0 12.0908 0 14.0395V19.3221C0 20.2964 0.859187 21.083 1.92395 21.083H57.0762C58.1408 21.083 59.0001 20.2965 59.0001 19.3221V14.0395C59 12.0908 57.2812 10.5178 55.1522 10.5178Z" fill="#FF9F19"/>
<path d="M55.1522 10.5178H29.5V21.083H57.076C58.1407 21.083 59 20.2965 59 19.3221V14.0395C59 12.0908 57.2812 10.5178 55.1522 10.5178Z" fill="#F28618"/>
<path d="M33.3479 10.5181H25.6522V53.9528H33.3479V10.5181Z" fill="#FFE14D"/>
<path d="M33.3478 10.5181H29.5V53.9528H33.3478V10.5181Z" fill="#FFCC33"/>
</g>
<defs>
<clipPath id="clip0_51_68">
<rect width="59" height="54" fill="white"/>
</clipPath>
</defs>
</svg>
