<svg width="58" height="55" viewBox="0 0 58 55" fill="none" xmlns="http://www.w3.org/2000/svg">
<path d="M55.6667 52.6667H2.33334" stroke="#B6C7FF" stroke-width="4" stroke-linecap="round"/>
<path d="M2.33334 23.3333L13.1679 14.6658M55.6667 23.3333L33.9976 5.99816C31.0757 3.66077 26.9243 3.66077 24.0024 5.99816L21.9173 7.66629" stroke="#B6C7FF" stroke-width="4" stroke-linecap="round"/>
<path d="M38.3333 8.66667V3.33333C38.3333 2.59696 38.9304 2 39.6667 2H46.3333C47.0696 2 47.6667 2.59696 47.6667 3.33333V16.6667" stroke="#B6C7FF" stroke-width="4" stroke-linecap="round"/>
<path d="M7.66669 52.6667V19.3333" stroke="#B6C7FF" stroke-width="4" stroke-linecap="round"/>
<path d="M50.3333 19.3333V30M50.3333 52.6667V40.6667" stroke="#B6C7FF" stroke-width="4" stroke-linecap="round"/>
<path d="M37 52.6666V39.3333C37 35.5621 37 33.6765 35.8285 32.5048C34.6568 31.3333 32.7712 31.3333 29 31.3333C25.2288 31.3333 23.3431 31.3333 22.1716 32.5048M21 52.6666V39.3333" stroke="#B6C7FF" stroke-width="4" stroke-linecap="round" stroke-linejoin="round"/>
<path d="M34.3334 19.3333C34.3334 22.2789 31.9456 24.6667 29 24.6667C26.0544 24.6667 23.6667 22.2789 23.6667 19.3333C23.6667 16.3878 26.0544 14 29 14C31.9456 14 34.3334 16.3878 34.3334 19.3333Z" stroke="#B6C7FF" stroke-width="4"/>
</svg>
